# xmcd
#
# Track frame offsets:
#	150
#	22085
#	39006
#	59286
#	79822
#	94601
#	115983
#	134432
#	149396
#	163485
#	180430
#	199040
#
# Disc length: 2794 seconds
#
# Revision: 1
# Processed by: cddbd v1.5.2PL0 Copyright (c) Steve Scherf et al.
# Submitted via: audiograbber 1.83.01
#
DISCID=a20ae80c
DTITLE=Johnson, Michael - Live at The Bluebird Cafe
DYEAR=2000
DGENRE=Country
TTITLE0=Rosalie
TTITLE1=Bluer than blue
TTITLE2=Company man
TTITLE3=Dirty hands
TTITLE4=In the name of God
TTITLE5=One mile apart
TTITLE6=Rollercoaster run
TTITLE7=Heart and soul to me
TTITLE8=It's my job
TTITLE9=If I fell from grace with you
TTITLE10=Cain's blood
TTITLE11=One note samba
EXTD=
EXTT0=
EXTT1=
EXTT2=
EXTT3=
EXTT4=
EXTT5=
EXTT6=
EXTT7=
EXTT8=
EXTT9=
EXTT10=
EXTT11=
PLAYORDER=
